<svg width="306" height="210" viewBox="0 0 306 210" fill="none" xmlns="http://www.w3.org/2000/svg">
<g clip-path="url(#clip0_445_9189)">
<path d="M10.282 131.532C17.6656 119.789 27.7804 110.433 38.2815 102.012C47.0803 94.9492 56.7877 87.6776 60.4169 76.4096C62.4012 70.2664 62.3437 63.4753 64.5735 57.4365C67.5447 49.3865 76.7508 39.6335 84.594 36.1179C96.5938 30.7373 111.095 38.897 123.554 34.7022C128.703 32.9679 130.061 29.6611 133.606 26.1873C137.403 22.4678 141.966 19.229 146.353 16.2462C154.953 10.3955 164.478 5.69397 174.733 3.65144C192.796 0.052182 212.064 5.19248 226.973 16.4186C235.933 23.1679 243.343 32.0223 248.884 41.9738C254.179 51.4917 256.518 62.044 261.421 71.6559C270.612 89.6679 289.687 99.6507 298.71 117.767C305.347 131.104 305.619 147.402 302.126 162.107C298.632 176.807 291.682 190.217 284.382 203.136C284.345 203.193 284.314 203.245 284.283 203.298H272.231C226.237 203.141 28.0728 202.525 23.3626 203.454H14.2036C7.52481 197.635 1.43091 181.561 0.214203 171.855C-1.56122 157.73 2.90347 143.275 10.282 131.532Z" fill="#FFDF80"/>
<path d="M106.432 116.821C108.103 119.443 112.468 122.499 115.565 122.457C126.113 122.264 129.585 115.076 130.724 112.459C130.51 112.407 130.149 112.365 129.893 112.334C127.951 112.052 125.967 110.129 125.387 107.961C124.64 105.14 123.721 99.6239 123.831 96.1187L110.489 103.505C110.51 104.519 110.578 105.626 110.672 106.744C110.74 107.423 110.808 108.092 110.886 108.74C110.959 109.361 111.043 109.951 111.121 110.495C111.366 112.323 110.552 114.136 109.011 115.144L106.432 116.821Z" fill="#FE8E68"/>
<path d="M105.283 88.0959C106.004 89.9869 105.701 92.1339 104.97 94.0198C104.453 95.3518 103.304 94.1765 101.873 94.2026C99.6593 94.2392 97.9309 91.9354 96.5941 85.8287C95.743 81.3466 95.5289 79.0742 95.7012 78.6407C96.3121 77.0892 98.3278 76.2586 99.9883 76.1123" fill="#3D302A"/>
<path d="M101.916 74.6649C98.4275 78.8701 97.1586 90.7022 100.104 98.9455C102.198 104.807 104.631 108.589 107.472 108.469C111.785 108.286 120.145 104.739 122.866 101.777C127.769 96.4433 126.344 85.9851 125.33 79.403C124.411 73.4216 121.613 65.6537 114.098 67.1321C109.158 68.0933 105.044 70.8881 101.916 74.6649Z" fill="#FE8E68"/>
<path d="M121.727 78.4467C120.954 79.3713 119.591 79.575 118.468 79.7579C116.959 80.0034 116.213 80.5153 115.429 81.8892C114.933 82.7668 114.437 83.728 113.549 84.2034C113.132 84.428 112.495 84.4594 112.291 84.031C112.688 83.7646 112.824 83.2213 112.724 82.7512C112.625 82.2862 112.338 81.884 112.035 81.5131C111.779 81.8579 111.753 82.3176 111.612 82.7303C111.424 83.2735 111.022 83.7332 110.51 83.9892C110.427 84.031 110.338 84.0676 110.249 84.0519C110.129 84.0362 110.035 83.9318 109.957 83.8377C109.409 83.1795 108.871 81.9258 108.108 81.5235C107.957 82.2392 107.68 82.8086 107.241 83.3989C106.855 83.9161 106.396 84.4489 105.764 84.5691C105.56 84.6109 105.304 84.5795 105.21 84.3967C105.09 84.172 105.278 83.9474 105.247 83.7176C105.221 83.5034 105.121 83.4094 105.012 83.2265C104.73 82.7616 104.479 82.3123 104.108 81.9049C103.362 82.7564 102.547 83.54 101.675 84.2609C101.482 84.4176 101.2 84.5743 101.007 84.4176C100.902 84.334 100.876 84.1929 100.855 84.0571C100.745 83.3937 100.641 82.7303 100.531 82.0668C100.469 81.6959 100.255 81.2101 99.8891 81.3041C99.7115 81.3512 99.6071 81.5235 99.5079 81.6803C99.3878 81.8788 97.2416 84.1407 97.1998 83.9683C96.8656 82.6832 96.1816 81.5131 95.8474 80.228C93.7012 71.9534 103.288 65.3034 110.615 65.2668C112.244 65.2564 113.769 65.6012 115.351 65.9512C117.038 66.3273 118.782 66.6041 120.312 67.4452C122.458 68.6206 124.082 70.7571 123.664 73.3064" fill="#3D302A"/>
<path d="M118.197 76.2583C117.132 77.465 116.85 79.1628 116.75 80.7665C116.604 83.1851 116.803 85.6978 117.92 87.8449C118.239 88.456 118.474 91.4807 118.964 91.3135C119.121 91.2613 119.095 88.9157 119.508 87.6516C120.145 85.6926 123.079 84.9456 124.4 86.1837C126.51 88.1531 125.272 90.5456 124.573 92.0344C124.155 92.9329 123.492 93.9411 123.377 94.8919C123.236 96.109 123.194 100.544 123.988 101.578C124.651 102.446 125.356 98.256 125.957 97.4307C130.4 91.2822 134.661 75.6262 127.074 72.2307C125.92 71.7135 122.359 71.4471 121.278 72.1053" fill="#3D302A"/>
<path d="M90.103 200.712C89.6644 200.785 89.2205 200.848 88.761 200.863C86.3172 200.942 83.9569 200.404 81.5705 199.996C79.4713 199.636 78.9021 199.437 78.9439 196.904C79.3094 176.839 82.2598 156.826 87.5652 137.472C88.3746 134.515 89.2571 131.537 90.8079 128.894C93.4554 124.386 99.5337 120.494 104.197 118.31C104.855 118.002 107.581 119.736 108.244 119.439C108.823 119.178 109.335 118.77 109.92 118.514C111.633 117.767 112.781 119.329 114.212 119.982C114.954 120.316 115.779 120.531 116.593 120.494C117.257 120.468 117.857 120.066 118.463 120.379C121.189 121.789 127.956 111.321 127.956 111.321L130.886 114.387L139.465 123.378L160.906 152.929C160.906 152.929 164.796 177.147 167.47 193.022C167.935 195.76 169.773 201.678 170.138 203.752C170.06 203.303 151.836 203.183 150.854 203.183C138.186 203.183 126.384 203.183 113.711 203.183C111.627 203.183 106.024 204.066 104.562 202.535C102.761 200.654 100.677 192.025 100.568 189.606C100.207 181.472 100.766 173.401 100.876 165.221C100.829 168.548 99.8731 171.557 99.4658 174.817C98.9384 179.012 98.1864 183.201 97.5076 187.375C96.9645 190.729 96.4423 194.093 96.0246 197.468C95.8366 198.988 96.0768 199.892 94.7922 200.487C93.7217 200.968 91.3667 200.498 90.103 200.712Z" fill="#BC744A"/>
<path d="M96.9858 193.764C97.9779 193.356 104.103 191.836 106.865 191.261C108.312 190.964 114.871 189.261 116.39 189.261C117.91 189.261 119.978 191.434 119.978 191.434L119.429 198.909C117.967 198.763 116.009 199.52 114.959 199.667C113.91 199.813 110.343 199.834 108.15 198.732C108.025 198.669 107.91 198.601 107.795 198.533C106.912 199.317 105.805 200.079 104.578 200.142C104.578 200.142 103.617 200.043 103.711 199.656C103.753 199.468 104.39 198.497 105.027 197.546C104.087 198.502 102.552 200.053 100.782 200.142C100.782 200.142 99.8212 200.043 99.9152 199.656C99.9674 199.426 100.886 198.053 101.628 196.961C101.618 196.971 101.602 196.976 101.597 196.987C100.819 197.671 98.9701 200.032 96.7821 200.142C96.7821 200.142 95.8213 200.043 95.9153 199.656C95.9466 199.515 96.3122 198.935 96.756 198.261C96.1973 198.69 95.5132 199.144 94.6829 199.557C92.3174 200.727 90.9702 199.839 90.9702 199.557C90.965 199.27 95.9936 194.171 96.9858 193.764Z" fill="#FE8E68"/>
<path d="M118.286 185.081C118.286 185.081 114.474 187.244 114.813 191.841C115.153 196.438 116.531 201.766 122.286 201.207C128.04 200.648 118.286 185.081 118.286 185.081Z" fill="#874C2E"/>
<path d="M123.523 200.753C137.319 205.544 155.778 200.967 167.48 193.011C174.812 188.038 179.491 181.723 178.702 175.553C176.66 159.526 164.071 122.792 153.178 117.432C145.773 113.786 136.792 112.276 131.784 111.67C129.434 111.383 127.967 111.315 127.967 111.315L129.784 116.445L138.88 142.105C139.22 157.332 150.113 166.375 147.946 169.922C145.778 173.458 128.666 177.277 119.68 183.332C117.194 185.014 114.04 197.18 123.523 200.753Z" fill="#BC744A"/>
<path d="M178.702 175.95L178.734 177.021C178.734 177.199 178.76 177.377 178.734 177.554L178.671 178.082C178.619 178.432 178.619 178.792 178.53 179.132L178.279 180.161C177.862 181.509 177.282 182.809 176.488 183.98C174.974 186.362 172.969 188.409 170.755 190.165C166.321 193.686 161.214 196.318 155.888 198.23C150.572 200.189 145.001 201.48 139.345 201.95C136.52 202.19 133.674 202.221 130.849 201.981C128.019 201.762 125.21 201.244 122.484 200.393C125.152 201.412 127.972 202.012 130.808 202.362C133.653 202.686 136.525 202.723 139.387 202.55C142.249 202.388 145.095 201.96 147.893 201.344C150.692 200.733 153.455 199.938 156.154 198.967C158.844 197.969 161.475 196.804 163.992 195.425C166.504 194.041 168.937 192.484 171.131 190.624C173.329 188.78 175.329 186.649 176.807 184.173C177.564 182.945 178.102 181.592 178.473 180.208C178.843 178.818 178.869 177.361 178.702 175.95Z" fill="#874C2E"/>
<path d="M138.881 142.105C138.87 144.994 139.272 147.888 140.024 150.688C140.781 153.488 141.888 156.189 143.173 158.79C143.815 160.091 144.499 161.366 145.204 162.625C145.899 163.889 146.614 165.143 147.199 166.428C147.486 167.07 147.737 167.734 147.836 168.387C147.862 168.705 147.888 169.034 147.8 169.311C147.779 169.463 147.69 169.578 147.638 169.713C147.538 169.834 147.471 169.964 147.345 170.079C146.411 171.014 145.074 171.646 143.805 172.257C138.593 174.634 133.058 176.395 127.784 178.766C125.147 179.952 122.536 181.232 120.108 182.831L119.659 183.134C119.508 183.238 119.367 183.374 119.22 183.494C118.949 183.76 118.714 184.053 118.526 184.372C118.139 185.004 117.878 185.693 117.675 186.393C117.288 187.798 117.126 189.246 117.116 190.693C117.21 189.256 117.45 187.819 117.873 186.456C118.322 185.103 119.017 183.787 120.317 183.154C122.756 181.64 125.372 180.433 128.024 179.32C130.682 178.223 133.372 177.184 136.071 176.175C138.771 175.151 141.486 174.175 144.139 172.963C145.444 172.315 146.786 171.704 147.899 170.581C148.04 170.445 148.155 170.257 148.275 170.095C148.363 169.896 148.484 169.708 148.515 169.499C148.64 169.081 148.598 168.669 148.562 168.277C148.437 167.504 148.155 166.804 147.852 166.135C147.23 164.798 146.504 163.549 145.8 162.29C145.095 161.031 144.384 159.783 143.711 158.513C141.016 153.451 139.152 147.888 138.881 142.105Z" fill="#874C2E"/>
<path d="M103.127 118.807C104.443 120.113 110.302 124.287 115.889 124.287C116.819 124.287 117.801 124.203 118.84 124.01C123.529 123.153 127.477 120.024 129.785 116.44C130.213 115.767 130.589 115.072 130.897 114.377C131.315 113.478 131.612 112.559 131.785 111.671C129.435 111.384 127.189 110.793 126.824 110.375C126.427 113.113 123.049 118.055 117.931 118.984C117.289 119.105 116.683 119.157 116.103 119.167H116.093C113.691 119.209 111.848 118.441 110.589 117.668C110.579 117.668 108.14 115.746 108.13 115.735L103.127 118.807Z" fill="#BC744A"/>
<path d="M113.874 87.0139C112.699 85.9795 109.879 86.3818 108.678 87.1497C108.443 87.3012 108.187 86.9616 108.386 86.7683C109.195 85.9586 110.553 85.9116 111.634 85.9534C112.453 85.9848 113.795 85.9482 114.077 86.9042C114.109 87.0139 113.957 87.087 113.874 87.0139Z" fill="#3D302A"/>
<path d="M102.411 87.7138C101.696 87.6616 101.027 87.5258 100.312 87.7034C99.5964 87.881 99.069 88.3198 98.432 88.6541C98.2962 88.7273 98.1709 88.5862 98.2283 88.4504C98.8549 87.0661 101.283 86.5593 102.495 87.39C102.625 87.484 102.594 87.7243 102.411 87.7138Z" fill="#3D302A"/>
<path d="M105.288 91.6529C105.335 92.729 105.294 93.8313 105.116 94.8969C105.053 95.2783 104.563 96.3022 104.641 96.626C104.73 96.9813 105.351 97.4253 105.565 97.7805C105.675 97.9581 105.461 98.141 105.294 98.0521C104.657 97.723 103.926 97.232 104.061 96.4641C104.181 95.7484 104.51 95.0641 104.62 94.3275C104.756 93.4395 104.761 92.5462 104.845 91.6477C104.866 91.3708 105.278 91.3604 105.288 91.6529Z" fill="#CC6144"/>
<path d="M116.541 105C115.068 106.729 112.551 107.888 110.29 107.956C110.066 107.961 110.008 107.596 110.238 107.554C112.635 107.11 114.405 106.285 116.322 104.775C116.473 104.65 116.677 104.843 116.541 105Z" fill="#CC6144"/>
<path d="M127.972 110.458C131.366 108.849 133.183 113.953 133.528 116.455C134.186 121.267 132.056 125.743 130.113 130.001C128.076 134.472 125.748 138.793 123.664 143.238C122.588 145.542 121.633 147.898 120.917 150.337C120.165 152.887 120.082 155.728 119.158 158.189C119.032 158.523 118.599 158.45 118.557 158.105C118.108 154.543 119.685 150.16 120.912 146.827C122.087 143.635 123.607 140.584 125.121 137.544C127.1 133.579 129.105 129.572 130.729 125.446C131.544 123.377 132.217 121.214 132.364 118.978C132.478 117.192 131.826 109.925 128.353 111.362C127.841 111.581 127.465 110.699 127.972 110.458Z" fill="#874C2E"/>
<path d="M108.139 115.954C103.868 117.579 105.361 125.389 105.946 128.774C106.656 132.895 107.988 136.892 109.659 140.721C112.912 148.186 117.298 155.113 121.225 162.227C121.549 162.813 120.661 163.335 120.327 162.755C115.444 154.183 109.883 145.866 106.661 136.474C105.168 132.117 104.212 127.53 104.144 122.913C104.103 119.841 104.552 116.106 107.878 114.983C108.489 114.774 108.729 115.724 108.139 115.954Z" fill="#874C2E"/>
<path d="M113.836 158.597C117.137 158.498 120.437 158.404 123.737 158.305C124.27 158.289 124.583 158.733 124.64 159.209C125.262 164.166 125.476 169.218 126.223 174.154C126.311 174.734 125.993 175.288 125.351 175.298C122.097 175.366 118.839 175.465 115.586 175.497C115.413 175.497 115.272 175.46 115.152 175.392C115.147 175.392 115.142 175.387 115.137 175.382C115.105 175.366 115.074 175.345 115.043 175.324C114.891 175.22 114.771 175.058 114.714 174.828C113.455 169.954 113.455 164.495 112.933 159.496C112.881 159.005 113.387 158.608 113.836 158.597Z" fill="#874C2E"/>
<path d="M100.74 178.704C100.599 176.014 100.865 173.292 100.881 170.596C100.902 167.807 100.818 165.017 100.667 162.228C100.521 159.527 100.306 156.826 99.9983 154.141C99.6798 151.373 99.1002 148.63 98.8077 145.861C98.766 145.49 99.3613 145.423 99.45 145.773C100.098 148.317 100.348 151.028 100.656 153.635C100.991 156.487 101.241 159.355 101.377 162.228C101.513 165.012 101.528 167.807 101.466 170.596C101.403 173.292 101.403 176.076 100.85 178.72C100.844 178.787 100.745 178.767 100.74 178.704Z" fill="#874C2E"/>
<path d="M128.186 115.479C127.303 119.099 123.251 122.171 119.69 122.704C119.387 122.751 119.257 122.333 119.559 122.239C121.398 121.653 123.131 120.896 124.614 119.637C126.05 118.42 126.928 116.921 127.935 115.374C128.024 115.249 128.223 115.327 128.186 115.479Z" fill="#874C2E"/>
<path d="M116.322 122.724C115.701 122.583 115.085 122.436 114.474 122.264C113.925 122.107 113.351 122.003 112.876 121.684C112.735 121.59 112.787 121.365 112.964 121.36C114.087 121.329 115.393 121.951 116.437 122.321C116.688 122.405 116.588 122.781 116.322 122.724Z" fill="#874C2E"/>
<path d="M122.374 88.8007C122.03 88.2731 121.497 89.9134 121.476 90.0492C121.377 90.6865 121.507 91.2559 121.669 91.8671C121.732 92.0969 121.022 91.9141 120.938 91.7522C120.479 90.8641 120.442 89.3178 121.241 88.5865C121.742 88.132 122.714 88.2574 123.074 88.8268C123.241 89.0828 122.489 88.9783 122.374 88.8007Z" fill="#CC6144"/>
<path d="M121.246 90.0591C121.251 89.9912 121.246 89.9233 121.225 89.8554C121.22 89.8345 121.22 89.8188 121.241 89.8032C121.523 89.4584 121.967 89.2965 122.395 89.4584C122.421 89.4688 122.51 89.5106 122.473 89.5524C122.369 89.6621 122.17 89.6569 122.04 89.7196C121.93 89.7718 121.852 89.845 121.758 89.9233C121.664 90.0069 121.549 90.0435 121.455 90.1218C121.408 90.1584 121.246 90.1218 121.246 90.0591Z" fill="#CC6144"/>
<path d="M109.304 103.469C108.908 104.018 108.056 104.305 107.44 103.934C107.393 103.908 107.398 103.871 107.456 103.877C108.004 103.903 108.505 103.746 108.834 103.286C108.913 103.177 109.398 103.339 109.304 103.469Z" fill="#CC6144"/>
<path d="M113.179 92.5253C113.242 92.9485 113.226 93.288 112.986 93.6589C112.782 93.9724 112.516 94.2074 112.14 94.2806C112.098 94.291 111.879 94.244 111.931 94.1709C112.135 93.8888 112.443 93.7268 112.62 93.4134C112.777 93.1313 112.923 92.8022 112.944 92.4783C112.944 92.4156 113.169 92.4731 113.179 92.5253Z" fill="#CC6144"/>
<path d="M100.651 95.1117C100.614 95.1117 100.514 95.0537 100.598 95.0537C100.64 95.0537 100.735 95.1117 100.651 95.1117Z" fill="#CC6144"/>
<path d="M100.071 95.0006C99.7261 94.823 99.2399 94.3059 99.564 93.9141C99.5901 93.8827 99.6895 93.9193 99.6999 93.9506C99.862 94.3215 99.8986 94.7186 100.296 94.9223C100.531 95.0424 100.181 95.0529 100.071 95.0006Z" fill="#CC6144"/>
<path d="M100.589 157.813C100.442 155.592 99.4241 153.858 98.0664 152.139C97.0116 150.807 95.6957 149.945 94.4842 148.796C94.3536 148.671 94.4894 148.436 94.6617 148.488C96.4267 149.042 97.8575 150.833 98.9123 152.265C100.019 153.764 101.555 155.88 100.876 157.844C100.824 158.011 100.604 157.98 100.589 157.813Z" fill="#874C2E"/>
<path d="M100.855 159.135C100.296 158.45 99.9411 157.62 99.4502 156.883C98.8706 156.016 98.1917 155.206 97.445 154.475C97.2988 154.334 95.915 152.918 95.7792 154.052C95.6957 154.768 97.1265 155.039 97.5494 155.295C98.0246 155.582 98.3432 155.807 98.3432 156.392C98.3432 156.58 98.0612 156.674 97.9724 156.491C97.4084 155.358 95.3771 155.4 95.163 153.879C95.0795 153.268 95.5651 152.882 96.1604 152.944C97.2309 153.059 98.3432 154.616 98.9437 155.363C99.7792 156.408 100.766 157.709 100.97 159.062C100.98 159.124 100.902 159.192 100.855 159.135Z" fill="#874C2E"/>
<path d="M121.586 186.681C121.581 188.488 121.612 190.238 122.249 191.957C122.881 193.67 124.025 194.976 125.079 196.423C125.158 196.533 125.006 196.658 124.902 196.601C121.811 194.887 120.244 189.925 121.304 186.644C121.351 186.493 121.586 186.514 121.586 186.681Z" fill="#874C2E"/>
<path d="M107.816 170.052C108.259 172.836 108.771 175.375 110.212 177.851C111.643 180.312 113.68 182.448 116.066 183.995C116.259 184.12 116.087 184.418 115.888 184.303C111.1 181.576 107.069 175.83 107.403 170.11C107.413 169.89 107.774 169.807 107.816 170.052Z" fill="#874C2E"/>
<path d="M92.1293 99.1806C91.5288 98.9351 90.756 98.7 90.3748 98.141C90.3173 98.0575 90.3957 97.9478 90.4897 97.9425C91.1476 97.9217 91.7847 98.4075 92.3173 98.7366C92.5366 98.8776 92.3956 99.2851 92.1293 99.1806Z" fill="#874C2E"/>
<path d="M92.0456 100.743C91.6801 100.994 91.09 101.224 90.6723 100.968C90.5521 100.895 90.5469 100.712 90.6723 100.639C90.8446 100.539 91.0482 100.513 91.2362 100.466C91.4451 100.414 91.6487 100.351 91.842 100.268C92.1344 100.153 92.2701 100.586 92.0456 100.743Z" fill="#874C2E"/>
<path d="M92.8185 103.513C92.4634 103.722 91.9934 104.061 91.56 104.035C91.4556 104.03 91.3772 103.915 91.4347 103.821C91.6644 103.45 92.1918 103.267 92.573 103.1C92.8498 102.97 93.0952 103.346 92.8185 103.513Z" fill="#874C2E"/>
<path d="M280.152 203.454H266.001H242.195H232.278H207.261H23.363H14.2039H6.439" stroke="black" stroke-width="2.1886" stroke-miterlimit="10" stroke-linecap="round"/>
<path d="M283.614 203.454H298.951" stroke="black" stroke-width="2.1886" stroke-miterlimit="10" stroke-linecap="round"/>
<path d="M1.65544 203.454H4.22461" stroke="black" stroke-width="2.1886" stroke-miterlimit="10" stroke-linecap="round"/>
<path d="M37.206 200.299H123.889C124.724 200.299 125.408 200.978 125.408 201.819V201.929C125.408 202.765 124.729 203.449 123.889 203.449H37.206C36.3705 203.449 35.6865 202.77 35.6865 201.929V201.819C35.6865 200.978 36.3653 200.299 37.206 200.299Z" fill="#2D2442"/>
<path d="M20.2822 161.669C38.3184 161.486 56.3546 161.303 74.3909 161.12C76.9496 161.094 79.5135 161.068 82.0722 161.042C82.4691 161.037 82.9808 161.272 83.1531 161.658C88.1087 173.104 93.0642 184.549 98.0197 195.995C98.7247 197.63 99.4348 199.26 100.14 200.895C100.166 200.947 100.176 201.005 100.192 201.057C100.192 201.057 100.192 201.057 100.192 201.062C100.208 201.114 100.223 201.166 100.234 201.219C100.375 201.882 100.041 202.66 99.226 202.76C99.038 202.817 98.8448 202.828 98.6568 202.781C80.1192 202.927 61.5817 203.068 43.0442 203.214C40.3967 203.235 37.7492 203.256 35.107 203.277C34.5169 203.282 34.0991 202.88 33.9007 202.358C28.9609 189.319 24.0158 176.28 19.0759 163.241C18.7783 162.473 19.5302 161.674 20.2822 161.669Z" fill="#2D2442"/>
<path d="M20.2823 160.812C36.9295 160.644 53.582 160.477 70.2292 160.305C72.2553 160.284 74.2866 160.263 76.3127 160.242C78.1455 160.221 80.2656 159.903 82.0776 160.185C84.7668 160.603 85.4561 164.829 86.3752 166.95C89.6806 174.582 92.9808 182.214 96.2862 189.841C97.7014 193.111 99.1217 196.376 100.532 199.646C101.064 200.879 101.581 202.373 100.182 203.308C99.4716 203.783 98.4011 203.632 97.6335 203.642C95.5761 203.668 93.5134 203.674 91.456 203.689C87.336 203.721 83.2159 203.752 79.0959 203.783C70.8558 203.846 62.6158 203.914 54.3809 203.977C50.2713 204.008 46.1669 204.039 42.0573 204.071C40.402 204.081 38.7519 204.097 37.0966 204.107C35.8225 204.118 34.5588 204.363 33.5718 203.423C32.5014 202.404 32.1411 200.09 31.6346 198.758C30.9139 196.851 30.1881 194.939 29.4675 193.033C27.7808 188.582 26.0942 184.126 24.4075 179.675C22.841 175.543 21.2744 171.406 19.7079 167.274C18.9246 165.205 16.7418 161.679 20.0629 160.822C21.1334 160.545 21.5877 162.201 20.5172 162.478C19.4206 162.76 23.1543 171.562 23.525 172.544C24.7313 175.726 25.9375 178.907 27.1385 182.083C28.3448 185.265 29.551 188.446 30.7521 191.622C31.2951 193.053 31.8382 194.485 32.3813 195.916C32.9714 197.478 33.3995 199.787 34.3708 201.161C35.6188 202.937 38.2245 202.378 40.0731 202.362C41.7545 202.347 43.4307 202.336 45.1121 202.321C48.5429 202.295 51.9789 202.268 55.4096 202.242C62.2763 202.19 69.1431 202.133 76.0098 202.08C82.8765 202.028 89.7433 201.971 96.61 201.918C97.3202 201.913 98.5212 202.216 99.0225 201.584C99.6648 200.78 99.2992 201.939 99.059 200.492C98.8554 199.286 97.952 197.938 97.4664 196.815C96.0304 193.497 94.5943 190.186 93.1583 186.868C90.4064 180.511 87.6545 174.148 84.8974 167.791C84.2864 166.38 83.7956 164.171 82.8348 163.021C81.5502 161.486 79.5137 161.898 77.7591 161.919C74.2083 161.956 70.6626 161.992 67.1118 162.029C51.5037 162.186 35.8956 162.342 20.2875 162.504C19.1752 162.536 19.1752 160.822 20.2823 160.812Z" fill="#2D2442"/>
<path d="M61.8109 186.498C59.5009 186.498 57.6282 185.132 57.6282 183.447C57.6282 181.762 59.5009 180.396 61.8109 180.396C64.121 180.396 65.9937 181.762 65.9937 183.447C65.9937 185.132 64.121 186.498 61.8109 186.498Z" fill="#5A4F72"/>
<path d="M53.7699 185.348C52.5644 185.348 51.5872 184.637 51.5872 183.76C51.5872 182.883 52.5644 182.172 53.7699 182.172C54.9754 182.172 55.9526 182.883 55.9526 183.76C55.9526 184.637 54.9754 185.348 53.7699 185.348Z" fill="#5A4F72"/>
<path d="M155.998 192.296C153.329 191.977 148.603 191.256 148.483 189.616C150.212 188.498 152.113 187.37 154.17 187.27C155.81 187.192 157.397 187.793 158.896 188.461C160.17 189.031 161.423 189.647 162.645 190.316C163.146 190.593 164.462 191.575 164.483 192.259C164.509 193.111 162.948 192.609 162.326 192.651C160.212 192.802 158.092 192.552 155.998 192.296Z" fill="#C1ADA4"/>
<path d="M162.3 190.906C162.3 190.906 158.749 202.529 156.875 202.811C154.995 203.088 136.624 203.229 136.139 203.02C135.653 202.811 135.58 202.461 135.58 202.461C135.58 202.461 123.888 203.229 123.68 202.947C123.471 202.665 123.68 201.275 124.238 201.066C124.797 200.857 142.468 196.892 143.998 196.333C145.528 195.774 150.332 195.915 150.332 195.915L151.308 189.161L162.3 190.906Z" fill="#FE8E68"/>
<path d="M158.013 45.0499C156.864 46.2827 156.238 47.9909 156.321 49.6783C156.373 50.6812 156.661 51.6581 156.963 52.6193C157.543 54.4685 158.232 56.3805 159.668 57.6812C159.903 57.8902 160.196 58.0939 160.504 58.0417C161.078 56.2656 161.658 54.4947 162.232 52.7185C162.509 51.8671 162.786 51.0103 162.942 50.1275C163.204 48.6335 163.11 47.0715 162.608 45.6454C162.379 44.9977 162.05 44.3551 161.501 43.9372C160.17 42.9133 158.922 44.0783 158.013 45.0499Z" fill="#433735"/>
<path d="M192.049 143.384C192.237 145.202 191.955 147.119 191.856 148.937C191.798 149.971 191.741 151.005 191.746 152.04C191.746 152.64 191.924 153.372 191.72 153.936C191.699 153.993 191.611 154.035 191.564 153.978C190.759 153.001 191.214 150.666 191.255 149.485C191.318 147.453 191.417 145.416 191.496 143.384C191.501 143.018 192.013 143.028 192.049 143.384Z" fill="#9B8580"/>
<path d="M186.874 139.801C188.806 144.189 189.877 148.655 192.524 152.756C192.676 152.986 192.3 153.205 192.154 152.97C189.814 149.293 187.266 144.241 186.65 139.89C186.634 139.769 186.812 139.66 186.874 139.801Z" fill="#9B8580"/>
<path d="M229.338 203.454L228.148 163.298L219.422 203.454H194.399C196.06 190.096 203.438 134.258 211.145 129.526L241.432 110.662C241.432 110.662 258.957 115.233 258.575 140.574C257.176 164.985 254.194 193.706 253.139 203.454H229.338Z" fill="#2D2442"/>
<path d="M148.551 189.658C149.199 190.645 152.509 189.903 153.486 189.997C154.363 190.081 155.188 190.415 156.039 190.634C158.744 191.34 161.768 190.969 164.201 192.348C164.274 192.39 164.363 192.437 164.446 192.41C164.54 192.384 164.582 192.28 164.613 192.191C166.17 187.887 167.381 183.394 168.744 179.006C170.791 172.413 172.833 165.816 174.88 159.223C175.934 155.817 176.994 152.411 178.049 149.005L185.48 114.564L182.175 90.2888L181.391 84.5635L181.334 84.1299C181.334 84.1299 181.172 84.1873 180.874 84.2918C179.84 84.6575 177.182 85.65 174.243 87.0866C169.527 89.3903 164.076 92.8433 163.334 96.7508C163.334 96.7665 163.329 96.7769 163.329 96.7926C162.937 99.5351 162.493 102.267 162.065 105.005C161.303 109.857 160.53 114.705 159.752 119.553C158.786 125.587 157.82 131.62 156.849 137.654C155.836 143.943 154.823 150.228 153.81 156.512C152.906 162.122 151.998 167.733 151.089 173.338C150.441 177.34 149.794 181.341 149.146 185.343C148.969 186.45 148.786 187.558 148.609 188.665C148.577 188.858 148.41 189.313 148.473 189.501C148.494 189.558 148.52 189.61 148.551 189.658Z" fill="#EED9CE"/>
<path d="M181.34 84.1246L181.397 84.5582L182.18 90.2836L185.486 114.559L201.653 124.521C202.499 125.043 203.224 128.616 203.569 129.515C204.687 132.425 205.658 135.449 206.937 138.291C207.198 138.876 207.433 140.459 208.013 140.814C209.177 141.53 213.919 140.548 215.381 140.454C220.796 140.104 226.274 139.31 231.229 136.975C235.146 135.125 238.618 132.513 242.305 130.272C244.561 128.904 247.072 128.047 249.453 126.945C251.046 126.208 254.487 124.798 255.103 122.922C255.281 122.379 255.004 121.804 254.743 121.303C253.605 119.098 252.848 116.44 251.506 114.392C250.268 112.506 248.738 110.803 247.532 108.865C245.098 104.973 242.952 100.862 239.913 97.388C234.743 91.4746 230.394 84.7201 225.067 78.8276C222.702 76.2104 215.329 73.7186 211.804 73.5724C208.598 73.4418 205.491 73.9694 202.77 74.7268C200.582 75.3433 198.64 76.1112 197.11 76.8007C194.864 77.8194 193.496 78.6813 193.496 78.6813L181.34 84.1246Z" fill="#EED9CE"/>
<path d="M175.365 116.424C173.663 115.374 165.71 110.296 164.995 108.462C164.666 107.611 162.859 104.989 161.303 102.528C160.379 101.071 158.044 98.2132 157.454 97.602C156.441 96.552 154.984 93.9505 154.102 94.8072C153.005 95.8729 154.718 98.5371 155.684 100.172C156.039 100.773 156.42 101.374 156.572 102.053C156.723 102.732 156.692 103.239 156.29 103.813C156.071 104.127 154.588 104.273 154.086 104.252C150.332 104.085 148.703 104.309 145.898 103.265C143.094 102.22 140.478 100.747 137.836 99.3468C137.382 99.1065 137.11 98.6154 136.087 98.5214C135.575 98.4744 134.499 98.5423 134.557 99.0542C134.604 99.4513 137.758 101.917 138.081 102.147C139.831 103.39 139.632 103.249 141.381 104.492C141.653 104.686 141.945 104.91 142.013 105.234C142.071 105.506 141.951 105.788 141.945 106.065C141.935 106.566 142.28 106.995 142.624 107.36C143.225 108.003 143.857 108.604 144.525 109.173C145.455 109.972 144.697 110.651 145.71 111.351C146.828 112.124 149.721 112.908 150.87 113.629C151.783 114.209 152.708 114.794 153.715 115.196C154.922 115.677 156.212 115.891 157.486 116.152C160.969 116.873 167.068 123.189 170.013 125.273" fill="#FE8E68"/>
<path d="M155.361 115.704C155.361 115.704 150.98 115.15 147.497 113.53C144.014 111.911 135.403 106.593 135.403 106.593C135.403 106.593 135.283 106.29 135.377 106.081C135.466 105.872 136.776 105.58 137.831 106.034C138.886 106.489 145.633 109.419 145.633 109.419" fill="#FE8E68"/>
<path d="M156.228 114.229C156.228 114.229 150.677 113.07 147.194 111.45C143.711 109.831 135.1 104.513 135.1 104.513C135.1 104.513 134.98 104.21 135.074 104.001C135.168 103.792 136.473 103.5 137.528 103.954C138.583 104.414 145.33 107.339 145.33 107.339" fill="#FE8E68"/>
<path d="M154.473 111.038C154.473 111.038 148.922 109.879 145.439 108.259C141.956 106.64 136.546 103.871 133.481 101.776C133.277 101.641 133.225 101.024 133.319 100.81C133.413 100.601 134.718 100.308 135.773 100.768C136.828 101.228 143.575 104.153 143.575 104.153" fill="#FE8E68"/>
<path d="M175.057 77.7874C175.057 77.7874 161.627 85.9784 158.488 69.403C157.726 62.5441 156.776 51.3963 162.488 47.0396C168.201 42.6829 181.344 42.1814 181.632 55.1157C181.13 58.8299 181.276 59.1172 181.276 59.1172C181.276 59.1172 186.206 57.759 185.135 63.9023C184.566 66.6866 183.825 67.6896 183.825 67.6896C183.825 67.6896 193.908 75.5881 193.919 75.5986C194.848 76.3247 195.626 77.5366 196.911 76.9515C197.052 76.8889 197.187 76.8053 197.339 76.7792C197.49 76.753 197.668 76.8001 197.746 76.9359C197.793 77.0195 197.788 77.1239 197.793 77.2232C197.809 77.7195 198.002 78.1844 198.133 78.6598C198.639 80.4829 198.112 82.1911 197.151 83.7687C196.336 85.106 195.177 86.2448 193.809 87.0075C192.498 87.7389 191.026 88.1359 189.548 88.4023C187.689 88.7366 185.72 88.8672 183.882 88.3553C182.754 88.0419 181.987 87.6918 181.203 86.7777C181.057 86.6053 180.916 86.4277 180.817 86.2239C180.592 85.7642 180.582 85.2366 180.587 84.7247C180.587 84.6516 180.592 84.5784 180.639 84.521C180.686 84.4635 180.77 84.453 180.843 84.4426C181.663 84.3068 181.12 83.8732 180.78 83.518C180.441 83.1628 180.096 82.8128 179.752 82.4575C179.031 81.721 178.3 80.9896 177.569 80.2583C176.728 79.4329 175.893 78.6075 175.057 77.7874Z" fill="#FE8E68"/>
<path d="M163.005 55.8014C165.052 55.0491 168.587 55.8588 169.882 57.682C169.971 57.8074 169.82 58.0111 169.673 57.9484C168.645 57.5409 167.783 56.8827 166.692 56.5745C165.47 56.2297 164.305 56.3238 163.068 56.2663C162.791 56.2611 162.754 55.8954 163.005 55.8014Z" fill="#433735"/>
<path d="M157.982 60.5288C158.29 61.5213 157.982 62.6549 157.58 63.6161C157.177 64.5773 156.556 65.4236 155.945 66.2646C155.668 66.6408 155.392 67.0221 155.115 67.3982C155.976 67.6855 156.822 68.0408 157.632 68.4587C158.117 68.7094 158.64 69.049 158.739 69.587" fill="#FE8E68"/>
<path d="M174.577 113.52C184.373 118.07 199.626 126.287 199.626 126.287L201.814 110.469L224.863 110.657C224.863 110.657 218.195 147.433 213.051 150.865C213.051 150.865 206.958 155.436 197.052 148.577C190.514 144.048 175.308 132.148 167.836 125.639L174.577 113.52Z" fill="#EED9CE"/>
<path d="M217.876 140.171C218.027 137.643 219.223 134.9 219.865 132.455C220.779 128.987 221.693 125.518 222.549 122.034C224.09 115.734 225.406 109.403 226.779 103.071C226.821 102.888 227.129 102.925 227.113 103.118C226.601 109.434 224.936 115.75 223.416 121.877C222.581 125.257 221.719 128.637 220.774 131.985C220.043 134.571 219.526 137.925 218.126 140.239C218.064 140.349 217.871 140.312 217.876 140.171Z" fill="#DBC4BD"/>
<path d="M168.399 124.809C173.183 127.964 177.449 132.106 181.37 136.259C181.715 136.625 181.167 137.173 180.822 136.808C176.833 132.603 172.425 129.045 167.997 125.331C167.7 125.091 168.081 124.6 168.399 124.809Z" fill="#DBC4BD"/>
<path d="M184.389 118.597C182.807 118.357 181.219 117.547 179.794 116.847C178.551 116.236 176.911 115.656 176.092 114.502C175.945 114.293 176.186 114.089 176.384 114.12C177.736 114.324 179.047 115.426 180.264 116.038C181.679 116.748 183.251 117.27 184.588 118.117C184.859 118.284 184.676 118.644 184.389 118.597Z" fill="#DBC4BD"/>
<path d="M197.506 76.5546C199.276 74.7366 201.01 77.9755 201.543 79.4538C202.963 83.4083 202.117 88.1255 200.963 92.0277C199.563 96.7814 197.219 101.133 195.966 105.944C194.54 111.429 193.49 116.919 193.705 122.608C193.72 122.958 193.182 122.953 193.161 122.608C192.676 115.19 194.456 106.9 197.224 100.036C198.618 96.5725 200.19 93.2396 201.015 89.5725C201.48 87.509 201.772 85.3568 201.678 83.2411C201.642 82.4105 200.221 74.512 197.877 76.915C197.642 77.1658 197.271 76.7949 197.506 76.5546Z" fill="#9B8580"/>
<path d="M179.866 83.3829C179.417 84.1299 178.973 84.8769 178.524 85.6187C178.435 86.115 178.346 86.6165 178.258 87.1127C178.211 87.6612 178.237 88.2202 178.273 88.7635C178.372 90.2523 178.738 91.715 178.983 93.1881C179.448 96.0247 179.808 98.8769 180.294 101.713C181.229 107.178 182.477 112.574 184.242 117.834C184.341 118.127 183.887 118.247 183.787 117.96C181.323 110.928 179.981 103.625 178.879 96.2702C178.372 92.8642 175.469 84.7411 180.054 82.9754C180.237 82.9023 180.414 83.1165 180.367 83.2889C180.352 83.3411 180.336 83.3933 180.325 83.4403C180.242 83.6963 179.876 83.6389 179.866 83.3829Z" fill="#9B8580"/>
<path d="M186.222 150.651C186.217 150.186 186.64 149.716 187.125 149.747C190.42 149.966 193.71 150.191 197.005 150.411C197.501 150.442 197.893 150.797 197.908 151.314C198.049 156.387 197.783 161.522 198.049 166.584C198.075 167.049 197.616 167.524 197.146 167.487C193.898 167.242 190.65 167.023 187.407 166.746C187.381 166.746 187.36 166.735 187.334 166.73C186.963 166.751 186.613 166.563 186.535 166.082C185.757 161.099 186.258 155.687 186.222 150.651Z" fill="#D6CED7"/>
<path d="M185.595 61.8238C187.073 62.0224 188.201 62.3776 189.277 61.0194C189.71 60.4761 190.055 59.9067 190.728 59.6507C190.817 59.6194 190.885 59.7447 190.817 59.8022C189.982 60.5649 189.381 61.8761 188.279 62.2992C187.407 62.6335 186.332 62.3932 185.522 61.991C185.418 61.944 185.501 61.8082 185.595 61.8238Z" fill="#594C4A"/>
<path d="M165.293 66.9748C162.769 66.9748 160.724 64.9283 160.724 62.4039C160.724 59.8795 162.769 57.833 165.293 57.833C167.816 57.833 169.862 59.8795 169.862 62.4039C169.862 64.9283 167.816 66.9748 165.293 66.9748Z" stroke="#F9F9F9" stroke-width="1.0943" stroke-miterlimit="10"/>
<path d="M160.582 61.2027C160.415 61.1034 160.342 60.9467 160.19 60.8213C159.971 60.6385 159.684 60.534 159.407 60.4818C159.151 60.4348 158.874 60.4348 158.629 60.5288C158.399 60.6176 158.342 60.837 158.133 60.9258C158.075 60.9519 158.023 60.9415 157.981 60.884C157.966 60.8631 157.95 60.837 157.929 60.8161C157.882 60.7534 157.898 60.6751 157.929 60.6124C158.195 60.0377 158.963 59.9907 159.506 60.1057C159.971 60.2049 160.806 60.5601 160.718 61.1452C160.718 61.2079 160.629 61.2288 160.582 61.2027Z" fill="#F9F9F9"/>
<path d="M185.657 54.2075C183.323 55.8896 168.728 53.8262 164.013 51.6635C154.436 47.2702 153.496 39.5336 155.736 38.0814C156.008 37.9038 156.305 37.768 156.624 37.7262C157.376 37.6374 158.065 38.1023 158.676 38.5463C158.436 37.6687 157.564 33.8605 159.887 32.3456C163.01 30.3135 166.937 33.7508 167.579 34.1792C172.033 37.162 174.441 37.6687 174.441 37.6687C174.441 37.6687 173.657 30.1515 179.809 35.9239C181.746 37.7418 185.344 39.4396 187.276 41.268C189.302 43.1851 190.456 46.3142 189.286 48.9889" fill="#433735"/>
<path d="M178.817 49.6526C177.48 50.7391 176.885 52.4787 176.499 54.1608C175.919 56.6891 175.689 59.3742 176.493 61.8399C176.723 62.5399 176.436 65.7787 176.984 65.6847C177.157 65.6585 177.543 63.1772 178.196 61.913C179.214 59.9541 182.446 59.6876 183.621 61.2235C185.078 63.125 184.143 64.4675 183.496 66.3638C183.015 67.7742 183.491 69.5451 185.214 70.0309C186.822 70.4854 186.357 69.2682 187 68.1294C188.378 65.6742 189.82 63.5272 190.744 60.7951C192.201 56.4854 193.402 49.9451 188.895 46.9623C187.767 46.2153 184.049 45.3063 182.796 45.8078" fill="#433735"/>
<path d="M179.914 59.2701C179.24 60.597 177.679 60.8582 176.353 61.1925C174.442 61.6731 172.395 62.0492 170.416 62.044C170.071 62.044 170.092 61.5634 170.416 61.5216C172.113 61.3074 173.799 61.1612 175.47 60.7955C176.849 60.4977 178.723 60.2313 179.658 59.0768C179.783 58.9253 179.992 59.1134 179.914 59.2701Z" fill="#F9F9F9"/>
<path d="M177.799 74.4977C177.088 75.8559 175.971 77.1985 174.582 77.8985C174.519 77.9298 174.451 77.8515 174.504 77.7992C175.6 76.6865 176.692 75.6627 177.621 74.3985C177.699 74.294 177.856 74.3828 177.799 74.4977Z" fill="#CC6144"/>
<path d="M150.415 58.3763C149.762 57.9479 149.063 57.5457 148.541 56.9554C148.504 56.9136 148.541 56.8248 148.603 56.8509C149.334 57.133 149.95 57.6449 150.572 58.1099C150.728 58.2248 150.587 58.486 150.415 58.3763Z" fill="#433735"/>
<path d="M149.47 60.1944C148.979 60.09 148.363 59.975 147.945 59.6877C147.835 59.6094 147.877 59.4474 148.013 59.437C148.52 59.4056 149.104 59.6355 149.58 59.8026C149.825 59.8862 149.726 60.2467 149.47 60.1944Z" fill="#433735"/>
<path d="M149.293 62.4353C148.99 62.3517 148.687 62.2838 148.368 62.2472C148.112 62.2211 147.851 62.2211 147.601 62.1636C147.528 62.148 147.507 62.033 147.58 61.9965C148.123 61.7353 148.854 61.8606 149.392 62.08C149.606 62.1636 149.528 62.4979 149.293 62.4353Z" fill="#433735"/>
<path d="M245.892 129.305C247.224 129.263 247.166 131.342 247.291 132.23C247.459 133.437 247.798 134.994 246.759 135.903C246.581 136.06 246.341 135.945 246.315 135.72C246.31 135.663 246.305 135.605 246.299 135.553C246.284 135.422 246.435 135.38 246.529 135.422C246.586 135.448 246.649 135.474 246.707 135.501C246.586 135.532 246.472 135.563 246.352 135.595C246.962 134.665 246.895 133.766 246.764 132.716C246.633 131.661 246.707 130.256 245.803 129.535C245.699 129.457 245.788 129.31 245.892 129.305Z" fill="black"/>
<path d="M244.372 130.325C245.203 131.693 245.401 134.237 244.727 135.695C244.649 135.867 244.399 135.768 244.393 135.606C244.357 134.728 244.571 133.866 244.519 132.978C244.466 132.101 244.211 131.265 244.132 130.392C244.117 130.257 244.31 130.22 244.372 130.325Z" fill="black"/>
<path d="M218.654 141.379C218.832 141.922 218.999 142.47 219.239 142.993C219.458 143.468 219.793 143.886 220.002 144.361C220.101 144.586 219.85 144.805 219.652 144.628C218.837 143.897 218.388 142.481 218.31 141.42C218.299 141.222 218.597 141.196 218.654 141.379Z" fill="black"/>
<path d="M217.496 143.238C217.663 143.839 217.934 144.335 218.211 144.884C218.326 145.119 218.007 145.417 217.825 145.182C217.407 144.649 217.219 143.949 217.167 143.28C217.156 143.092 217.449 143.061 217.496 143.238Z" fill="black"/>
<path d="M257.045 129.232C255.395 130.225 253.671 131.061 252.032 132.095C250.601 132.994 249.097 133.84 247.395 134.065C247.144 134.096 247.092 133.678 247.337 133.626C249.311 133.192 250.93 132.241 252.611 131.165C253.906 130.335 255.421 129.201 257.003 129.086C257.086 129.086 257.107 129.196 257.045 129.232Z" fill="black"/>
<path d="M244.57 134.404C240.403 136.567 236.471 139.236 232.2 141.19C230.247 142.083 228.195 142.705 226.085 143.138C224.09 143.546 221.73 144.1 219.699 143.88C219.49 143.859 219.417 143.551 219.646 143.494C221.819 142.945 224.179 142.992 226.388 142.512C228.607 142.026 230.732 141.31 232.774 140.307C236.722 138.374 240.309 135.647 244.424 134.065C244.623 133.986 244.753 134.305 244.57 134.404Z" fill="black"/>
<path d="M225.673 164.112C225.01 163.345 224.336 162.587 223.569 161.924C223.135 161.547 220.916 159.578 220.237 160.236C220.174 160.299 220.049 160.236 220.08 160.147C220.42 159.103 221.903 160.184 222.399 160.508C223.777 161.417 224.989 162.571 225.835 163.992C225.898 164.086 225.751 164.201 225.673 164.112Z" fill="black"/>
<path d="M230.639 163.501C232.675 161.485 235.385 160.08 238.278 159.965C238.362 159.96 238.377 160.09 238.299 160.111C235.5 160.748 233.025 161.798 230.868 163.731C230.712 163.867 230.492 163.648 230.639 163.501Z" fill="black"/>
<path d="M225.876 165.445C223.385 166.322 221.432 167.874 220.858 170.575C220.733 170.481 220.607 170.381 220.482 170.287C221.124 169.875 221.683 169.363 222.153 168.762C222.487 168.334 222.727 167.764 223.119 167.383C223.547 166.97 224.221 166.829 224.727 167.158C224.759 167.179 224.738 167.231 224.701 167.216C223.573 166.798 222.931 168.548 222.398 169.201C221.918 169.796 221.349 170.272 220.738 170.726C220.545 170.872 220.325 170.632 220.362 170.439C220.879 167.874 223.088 165.319 225.834 165.163C226.012 165.152 226.022 165.393 225.876 165.445Z" fill="black"/>
<path d="M257.343 146.206C254.795 144.628 252.466 142.695 251.072 139.989C250.9 139.655 251.406 139.357 251.578 139.692C252.931 142.309 255.171 144.168 257.641 145.699C257.959 145.898 257.667 146.404 257.343 146.206Z" fill="black"/>
<path d="M226.873 143.243C226.696 145.881 226.309 148.456 226.361 151.11C226.419 153.895 226.774 156.658 227.38 159.374C227.437 159.63 227.04 159.745 226.983 159.484C226.382 156.809 226.017 154.098 225.949 151.356C225.881 148.686 225.933 145.803 226.654 143.212C226.685 143.092 226.878 143.112 226.873 143.243Z" fill="black"/>
<path d="M227.348 160.523C227.599 160.941 227.641 161.49 227.73 161.96C227.808 162.378 227.976 162.853 227.84 163.271C227.813 163.35 227.714 163.36 227.667 163.292C227.411 162.921 227.421 162.394 227.343 161.96C227.259 161.511 227.092 161.041 227.123 160.581C227.134 160.466 227.286 160.414 227.348 160.523Z" fill="black"/>
<path d="M223.161 143.526C223.234 145.61 223.15 147.705 223.129 149.789C223.108 151.738 222.931 153.754 223.124 155.692C223.448 158.889 226.555 160.514 227.719 163.319C227.798 163.507 227.474 163.643 227.39 163.46C226.168 160.754 223.166 159.239 222.68 156.152C222.383 154.256 222.618 152.218 222.649 150.306C222.685 148.05 222.659 145.777 222.795 143.521C222.806 143.291 223.15 143.291 223.161 143.526Z" fill="black"/>
<path d="M199.522 83.3825C199.563 87.2796 195.464 89.74 191.96 90.0848C191.684 90.1109 191.668 89.7087 191.898 89.6251C193.543 89.0191 195.208 88.7057 196.665 87.6505C198.054 86.637 199.083 85.1169 199.276 83.3878C199.292 83.2258 199.522 83.2206 199.522 83.3825Z" fill="#C1ADA4"/>
<path d="M189.767 90.0591C189.218 90.1793 188.66 90.174 188.101 90.1793C187.532 90.1897 186.989 90.2106 186.446 90.0173C186.32 89.9703 186.32 89.8031 186.446 89.7561C186.989 89.5681 187.532 89.589 188.101 89.5942C188.66 89.6046 189.218 89.5942 189.767 89.7143C189.934 89.7561 189.934 90.0225 189.767 90.0591Z" fill="#C1ADA4"/>
<path d="M227.114 104.179C227.208 103.208 227.505 102.372 228.158 101.63C228.659 101.061 229.704 100.22 230.508 100.423C230.649 100.46 230.717 100.664 230.597 100.763C230.32 100.998 229.996 101.04 229.672 101.191C229.276 101.379 228.92 101.635 228.602 101.933C227.965 102.528 227.469 103.338 227.323 104.2C227.307 104.325 227.103 104.299 227.114 104.179Z" fill="#C1ADA4"/>
<path d="M179.12 65.4543C178.692 64.0543 180.118 61.2282 181.83 61.8289C182.332 62.0066 182.013 62.2469 181.621 62.1424C181.204 62.0275 180.394 63.417 180.269 63.6573C179.95 64.2633 179.898 64.958 179.59 65.5536C179.528 65.6789 179.157 65.5692 179.12 65.4543Z" fill="#CC6144"/>
<path d="M180.138 63.433C180.154 62.9681 180.571 62.7278 181.005 62.7696C181.234 62.7957 181.485 62.8688 181.668 63.0151C181.778 63.0987 181.929 63.2867 181.809 63.4121C181.741 63.48 181.563 63.4069 181.506 63.3651C181.334 63.2449 181.245 63.0464 181.046 63.1352C180.859 63.2136 180.728 63.3912 180.665 63.5793C180.618 63.7255 180.133 63.5897 180.138 63.433Z" fill="#CC6144"/>
<path d="M166.352 63.4439C166.279 63.9715 165.919 64.3111 165.376 64.2954C165.355 64.2954 165.198 64.2536 165.245 64.2118C165.376 64.0969 165.543 64.0237 165.679 63.9036C165.835 63.7626 166.008 63.5693 166.086 63.3708C166.117 63.3028 166.368 63.3655 166.352 63.4439Z" fill="#CC6144"/>
<path d="M202.838 98.9446C202.644 104.445 201.971 109.925 201.271 115.379C200.911 118.179 200.754 121.386 199.981 124.019C199.898 124.301 199.517 124.176 199.558 123.904C199.558 123.899 199.558 123.899 199.558 123.894C199.595 123.612 200.023 123.732 199.981 124.009C199.981 124.014 199.981 124.014 199.981 124.019C199.84 123.983 199.699 123.941 199.558 123.904C199.522 124.03 199.548 123.439 199.558 123.304C199.605 122.745 199.715 122.18 199.793 121.621C200.096 119.485 200.389 117.348 200.665 115.212C201.365 109.8 201.986 104.377 202.493 98.9446C202.509 98.7252 202.848 98.7148 202.838 98.9446Z" fill="#C1ADA4"/>
<path d="M193.376 122.965C195.522 123.435 197.511 124.412 199.506 125.352C201.563 126.318 203.689 127.238 205.563 128.533C205.699 128.627 205.621 128.862 205.448 128.81C201.198 127.53 197.323 124.981 193.276 123.215C193.125 123.147 193.235 122.933 193.376 122.965Z" fill="#C1ADA4"/>
<path d="M156.405 146.065C156.974 148.102 157.099 150.103 157.951 152.093C158.849 154.188 160.175 155.812 161.58 157.578C161.752 157.792 161.491 158.059 161.277 157.881C159.559 156.471 158.29 154.334 157.423 152.312C156.635 150.479 155.825 148.091 156.149 146.065C156.175 145.929 156.374 145.944 156.405 146.065Z" fill="#C1ADA4"/>
<path d="M247.49 127.489C247.976 125.843 248.357 124.13 248.388 122.406C248.425 120.635 247.965 119.015 247.694 117.292C247.662 117.077 247.955 116.905 248.075 117.13C249.694 120.175 249.26 124.615 247.819 127.624C247.73 127.812 247.438 127.682 247.49 127.489Z" fill="#C1ADA4"/>
<path d="M242.805 129.766C243.207 128.721 243.661 127.687 243.959 126.606C244.068 126.198 244.544 124.908 244.298 124.605C243.337 124.161 242.815 124.375 242.732 125.247C242.669 125.618 242.643 125.994 242.653 126.37C242.653 126.543 242.382 126.59 242.345 126.412C242.131 125.477 242.956 122.332 244.434 123.492C245.076 123.999 244.742 125.273 244.606 125.921C244.309 127.3 243.651 128.591 243.097 129.881C243.024 130.053 242.742 129.933 242.805 129.766Z" fill="#C1ADA4"/>
<path d="M232.838 135.952C233.95 134.16 234.451 132.357 235.02 130.357C235.057 130.237 235.229 130.263 235.234 130.388C235.318 132.446 234.315 134.551 233.046 136.113C232.947 136.228 232.759 136.082 232.838 135.952Z" fill="#C1ADA4"/>
<path d="M223.907 139.436C222.351 139.295 220.289 138.135 220.038 136.427C220.017 136.28 220.195 136.124 220.32 136.265C220.806 136.829 221.145 137.471 221.725 137.962C222.362 138.501 223.155 138.882 223.954 139.106C224.132 139.148 224.106 139.456 223.907 139.436Z" fill="#C1ADA4"/>
<path d="M223.866 137.696C222.853 137.346 221.599 136.447 221.422 135.303C221.401 135.167 221.573 135.016 221.688 135.152C222.028 135.554 222.273 136.019 222.654 136.39C223.051 136.781 223.526 137.084 224.033 137.309C224.247 137.408 224.096 137.774 223.866 137.696Z" fill="#C1ADA4"/>
<path d="M166.702 76.7013C166.232 76.508 165.908 76.8162 165.475 76.9364C165.428 76.9468 165.297 76.9364 165.281 76.8737C165.187 76.5237 165.663 76.4036 165.934 76.3774C166.273 76.3461 166.644 76.4088 166.921 76.6282C167.072 76.7483 166.759 76.7274 166.702 76.7013Z" fill="#CC6144"/>
<path d="M15.4724 53.2844H71.085C75.8107 53.2844 79.8472 56.6956 80.6409 61.3553L85.445 89.6217C86.4528 95.5404 81.8889 100.942 75.889 100.942H75.6071L77.7741 112.528L67.0798 100.942H20.2817C15.5559 100.942 11.5194 97.5307 10.7257 92.871L5.92164 64.6046C4.9086 58.6859 9.47248 53.2844 15.4724 53.2844Z" fill="#699DEE"/>
<path d="M47.3831 63.9402C41.4563 64.2589 35.5139 64.3373 29.5819 64.4679C26.6577 64.5305 23.7334 64.5984 20.8092 64.6611C17.838 64.729 14.7414 65.0425 11.7806 64.7708C11.4725 64.7447 11.342 64.2328 11.7023 64.1858C14.5116 63.7992 17.4568 63.9559 20.2974 63.888C23.3052 63.8201 26.3182 63.7522 29.326 63.6843C35.3415 63.5484 41.3676 63.3499 47.3831 63.4074C47.733 63.4022 47.733 63.9246 47.3831 63.9402Z" fill="white"/>
<path d="M48.9859 71.1502C43.1949 71.4846 37.3987 71.6465 31.6024 71.6204C28.7461 71.6099 25.8845 71.5525 23.0282 71.448C20.2449 71.3487 17.3782 71.3749 14.621 70.9465C14.2294 70.8838 14.339 70.2831 14.7098 70.2778C17.5557 70.2047 20.4382 70.5338 23.2841 70.6331C26.1404 70.7323 28.9967 70.7846 31.8583 70.795C37.571 70.8107 43.2785 70.6487 48.9807 70.3144C49.529 70.2831 49.5238 71.1241 48.9859 71.1502Z" fill="white"/>
<path d="M48.9444 76.9064C43.7122 77.3818 38.4538 77.8989 33.2006 78.0974C27.9579 78.2959 22.6734 77.9825 17.4358 77.7997C16.7466 77.7735 16.7413 76.6922 17.4358 76.7235C22.6786 76.9273 27.9474 77.3191 33.2006 77.1467C38.4538 76.9743 43.6913 76.4101 48.9444 76.2168C49.3935 76.2012 49.3831 76.8646 48.9444 76.9064Z" fill="white"/>
<path d="M75.5973 82.2453C60.6838 83.4834 45.6396 83.5617 30.6843 83.6923C27.123 83.7237 23.5356 83.7968 19.9795 83.6401C19.3946 83.614 19.3894 82.7416 19.9795 82.7311C26.888 82.5692 33.8069 82.7155 40.7154 82.6475C48.7832 82.5692 56.8509 82.4281 64.9135 82.1617C68.4747 82.0416 72.0413 81.9528 75.6026 81.7438C75.9211 81.7229 75.9159 82.2192 75.5973 82.2453Z" fill="white"/>
<path d="M76.2282 87.3224C61.4817 88.5501 46.6204 88.7695 31.8322 88.9575C28.3126 89.0045 24.767 89.0881 21.2475 88.9314C20.6626 88.9053 20.6574 88.0329 21.2475 88.0224C28.1507 87.8605 35.0697 87.9702 41.9782 87.8657C49.8736 87.7456 57.7742 87.5627 65.6644 87.265C69.1892 87.1344 72.7139 87.0299 76.2334 86.821C76.5519 86.8001 76.5467 87.2963 76.2282 87.3224Z" fill="white"/>
<path d="M73.4297 61.0729C74.1242 63.6118 74.1869 66.2341 74.1973 68.8513C74.2025 70.1782 74.2025 71.5103 74.3017 72.8371C74.4062 74.2267 74.9022 75.564 74.9753 76.9379C75.0015 77.4237 74.3174 77.57 74.0824 77.1782C73.5289 76.2483 73.4558 75.0573 73.3305 73.9916C73.1634 72.5968 73.1425 71.1968 73.1425 69.7916C73.1373 66.9498 73.2052 64.1185 72.3958 61.3603C72.1973 60.6916 73.2469 60.4043 73.4297 61.0729Z" fill="white"/>
<path d="M72.3852 61.4286C65.6752 61.5592 59.0017 61.7786 52.3281 62.5256C52.5318 62.2592 52.7354 61.9876 52.9391 61.7211C53.6545 66.8458 54.114 71.9547 54.1035 77.1316C54.1035 78.145 52.5213 78.1502 52.5266 77.1316C52.5631 72.0435 52.3438 66.9346 51.6911 61.8883C51.6441 61.5226 52.02 61.2823 52.3281 61.251C58.9703 60.5771 65.7117 60.2219 72.3852 60.6241C72.897 60.6555 72.9074 61.4182 72.3852 61.4286Z" fill="white"/>
<path d="M73.8105 77.8997C70.5051 77.5235 67.184 77.3877 63.8629 77.534C62.2859 77.6019 60.7089 77.7325 59.1371 77.9153C58.2233 78.025 57.3095 78.1609 56.4009 78.2967C55.6228 78.4116 55.0379 78.6153 54.2964 78.328C53.9152 78.1818 53.6698 77.6594 54.0353 77.3407C55.1058 76.3952 57.0222 76.4683 58.3956 76.3273C60.1293 76.1497 61.8734 76.0452 63.6122 76.0086C67.0848 75.9407 70.5416 76.181 73.9776 76.6616C74.6773 76.7609 74.5207 77.978 73.8105 77.8997Z" fill="white"/>
<path d="M70.7139 64.2493C70.9646 66.9448 71.163 69.6508 71.2779 72.3567C71.304 73.0202 70.2335 73.0254 70.2439 72.3567C70.2962 69.6455 70.2335 66.9552 70.0298 64.2493C69.9985 63.8105 70.6721 63.8157 70.7139 64.2493Z" fill="white"/>
<path d="M70.647 72.8743C65.3677 73.2086 60.0205 73.4802 54.7308 73.4907C54.052 73.4907 54.0624 72.4825 54.7308 72.4459C60.0101 72.1377 65.3572 72.0907 70.647 72.1012C71.1483 72.1012 71.1431 72.8429 70.647 72.8743Z" fill="white"/>
<path d="M68.2758 70.6222C68.0669 69.9901 67.8528 69.3528 67.6439 68.7207C67.4664 68.1879 67.3097 67.1274 66.9233 66.72C65.8476 65.5864 64.3228 69.0603 63.9939 69.5461C63.3672 70.4759 62.2498 71.1812 61.4247 70.0162C60.8712 69.2379 60.8451 68.1826 60.4326 67.3416C60.4065 66.8976 60.1663 66.6312 59.712 66.5424C59.5188 66.7879 59.3255 67.0282 59.1376 67.2737C58.8242 67.6707 58.5214 68.1565 58.1089 68.47C57.7016 68.7782 57.2316 68.8931 56.746 68.6894C55.9314 68.3446 55.9157 67.2006 55.1585 66.8558C53.5084 66.1088 56.5528 64.3535 56.37 66.161C56.3073 66.7722 56.9078 67.8483 57.5919 67.4931C58.0149 67.2737 58.4065 66.5632 58.7303 66.2132C59.1323 65.7744 59.6493 65.1058 60.3438 65.3774C60.8451 65.5759 60.9495 66.1819 61.1166 66.6259C61.3568 67.2737 61.6231 67.9162 61.879 68.5535C61.9156 69.1282 62.2132 69.4155 62.7772 69.4207C62.986 69.1647 63.1793 68.8983 63.3516 68.6162C64.0461 67.6028 64.9703 65.3356 66.5734 65.6021C67.2314 65.7118 67.5343 66.1923 67.7953 66.7565C68.328 67.9058 68.6308 69.2222 69.0277 70.4237C69.1791 70.8886 68.4324 71.0923 68.2758 70.6222Z" fill="white"/>
<path d="M96.8238 6.90674H133.455C136.567 6.90674 139.225 9.15301 139.747 12.2246L142.912 30.8426C143.575 34.7396 140.572 38.3023 136.619 38.3023H136.431L140.097 43.6411L130.813 38.3023H99.9883C96.8761 38.3023 94.2129 36.056 93.6959 32.9844L90.5315 14.3664C89.8683 10.4642 92.8709 6.90674 96.8238 6.90674Z" fill="#818181"/>
<path d="M134.395 13.4155C127.737 13.7602 121.064 13.8908 114.395 14.0684C111.106 14.1573 107.816 14.2461 104.526 14.3349C101.179 14.4237 97.7376 14.7476 94.3956 14.5281C94.0614 14.5073 94.0718 14.0528 94.3956 14.0162C97.6384 13.6244 101.001 13.755 104.265 13.6662C107.643 13.5722 111.017 13.4782 114.395 13.3841C121.058 13.2013 127.727 12.9662 134.395 12.9453C134.698 12.9453 134.693 13.3998 134.395 13.4155Z" fill="white"/>
<path d="M136.081 18.1688C129.669 18.4771 123.256 18.6756 116.839 18.7539C113.716 18.7905 110.593 18.8009 107.471 18.7853C104.192 18.7644 100.855 18.8636 97.5859 18.5763C97.2151 18.545 97.2047 18.0017 97.5859 17.986C100.782 17.8554 104.009 18.0487 107.21 18.0696C110.416 18.0905 113.627 18.08 116.834 18.0383C123.251 17.9599 129.664 17.7614 136.076 17.448C136.546 17.4271 136.546 18.148 136.081 18.1688Z" fill="white"/>
<path d="M137.1 22.463C124.651 23.4294 112.103 23.5286 99.6281 23.0898C99.1738 23.0742 99.1685 22.3637 99.6281 22.3794C112.134 22.8391 124.604 22.604 137.1 22.0085C137.392 21.998 137.387 22.4421 137.1 22.463Z" fill="white"/>
<path d="M138.097 27.0963C129.539 27.8485 120.823 28.3291 112.233 28.0209C111.847 28.0052 111.847 27.4254 112.233 27.4202C120.865 27.2791 129.471 27.2269 138.097 26.762C138.311 26.7515 138.306 27.0754 138.097 27.0963Z" fill="white"/>
<path d="M227.176 17.3281H277.317C281.578 17.3281 285.217 20.405 285.933 24.605L290.262 50.0923C291.17 55.4311 287.055 60.2998 281.645 60.2998H239.265L231.871 69.6192L231.573 60.2998H231.505C227.244 60.2998 223.605 57.2229 222.889 53.0229L218.56 27.5356C217.652 22.1968 221.767 17.3281 227.176 17.3281Z" fill="#FF6652"/>
<path d="M259.526 26.7422C253.583 26.9982 247.636 27.1027 241.688 27.2437C238.759 27.3116 235.829 27.3796 232.9 27.4475C229.897 27.5154 226.848 27.7504 223.85 27.599C223.605 27.5885 223.61 27.2437 223.85 27.2176C226.754 26.9355 229.725 27.0191 232.639 26.9512C235.657 26.8781 238.67 26.8049 241.688 26.737C247.631 26.596 253.578 26.4184 259.526 26.3975C259.745 26.3975 259.745 26.7318 259.526 26.7422Z" fill="white"/>
<path d="M261.108 33.1982C255.395 33.5169 249.672 33.6841 243.949 33.6841C238.267 33.6841 232.424 33.799 226.769 33.1669C226.497 33.1355 226.482 32.7333 226.769 32.7333C232.492 32.7176 238.22 33.1617 243.949 33.1564C249.672 33.1512 255.395 32.9841 261.108 32.6654C261.447 32.6445 261.447 33.1773 261.108 33.1982Z" fill="white"/>
<path d="M282.304 38.5218C265.254 39.7598 248.09 39.9374 231.015 39.321C230.597 39.3053 230.597 38.6576 231.015 38.6733C248.127 39.2897 265.207 39.0128 282.304 38.1091C282.575 38.0934 282.57 38.5009 282.304 38.5218Z" fill="white"/>
<path d="M283.672 44.8897C271.943 45.8561 260.037 46.4777 248.267 46.0964C247.918 46.086 247.912 45.5531 248.267 45.5479C260.09 45.3964 271.865 45.2919 283.672 44.5867C283.865 44.5762 283.865 44.874 283.672 44.8897Z" fill="white"/>
<path d="M280.533 24.1399C280.888 26.5951 281.41 29.1287 281.577 31.6048C281.676 33.0884 280.971 33.8041 279.53 34.0444C277.045 34.4675 274.46 34.5511 271.948 34.7757C270.444 34.9115 267.703 35.5279 266.46 34.2846C265.854 33.6787 266.006 32.7541 266.047 31.9809C266.105 30.8787 266.23 29.7817 266.23 28.6794C266.23 27.2951 265.828 26.1615 265.52 24.8451C265.379 24.2443 265.348 23.6436 265.755 23.1264C266.737 21.8832 269.196 22.3376 270.549 22.3429C273.301 22.3533 276.053 22.4264 278.799 22.4787C279.656 22.4943 279.619 23.8839 278.799 23.7846C275.233 23.3667 271.562 23.1055 267.969 23.2779C267.181 23.3145 266.371 23.2675 266.387 24.6048C266.392 24.913 266.622 25.2891 266.705 25.5817C266.914 26.2869 267.014 27.013 267.045 27.7496C267.081 28.5332 267.024 29.3167 266.956 30.0951C266.888 30.9048 266.622 31.8869 266.732 32.6914C266.925 34.1227 268.074 34.2794 269.29 34.2429C270.178 34.2167 271.06 34.107 271.948 34.0339C273.755 33.8824 275.562 33.7466 277.368 33.6003C278.105 33.5429 279.509 33.6996 280.162 33.3235C280.643 33.0466 281.045 32.1272 281.076 31.6048C281.107 31.0929 280.898 30.3197 280.825 29.7921C280.575 27.9533 280.261 26.1249 279.995 24.2914C279.943 23.9361 280.481 23.7846 280.533 24.1399Z" fill="white"/>
<path d="M275.322 29.9644C275.098 28.7629 274.993 27.5406 274.852 26.3286C274.915 26.4383 274.978 26.548 275.04 26.6629C274.821 26.5167 272.696 29.0764 272.455 29.348C272.393 29.1077 272.33 28.8674 272.267 28.6271C273.192 29.0032 274.121 29.3637 275.04 29.7503C275.552 29.9644 275.338 30.8159 274.805 30.6018C273.876 30.2309 272.962 29.8391 272.038 29.4577C271.735 29.3323 271.615 28.998 271.85 28.7368C272.44 28.0734 273.035 27.4256 273.667 26.804C274.022 26.454 274.56 25.7279 275.155 25.8532C275.735 25.9786 275.651 26.6107 275.698 27.0704C275.792 28.0055 275.902 28.9458 275.933 29.8861C275.933 30.2204 275.385 30.3092 275.322 29.9644Z" fill="white"/>
<path d="M59.7477 128.851C59.0757 128.851 58.531 128.306 58.531 127.634C58.531 126.962 59.0757 126.417 59.7477 126.417C60.4196 126.417 60.9644 126.962 60.9644 127.634C60.9644 128.306 60.4196 128.851 59.7477 128.851Z" fill="#2D2442"/>
<path d="M55.8946 128.851C55.2227 128.851 54.6779 128.306 54.6779 127.634C54.6779 126.962 55.2227 126.417 55.8946 126.417C56.5666 126.417 57.1113 126.962 57.1113 127.634C57.1113 128.306 56.5666 128.851 55.8946 128.851Z" fill="#2D2442"/>
<path d="M52.0455 128.851C51.3736 128.851 50.8289 128.306 50.8289 127.634C50.8289 126.962 51.3736 126.417 52.0455 126.417C52.7175 126.417 53.2622 126.962 53.2622 127.634C53.2622 128.306 52.7175 128.851 52.0455 128.851Z" fill="#2D2442"/>
<path d="M55.048 37.2615C54.376 37.2615 53.8313 36.7165 53.8313 36.0443C53.8313 35.3721 54.376 34.8271 55.048 34.8271C55.7199 34.8271 56.2646 35.3721 56.2646 36.0443C56.2646 36.7165 55.7199 37.2615 55.048 37.2615Z" fill="#2D2442"/>
<path d="M51.1944 37.2615C50.5225 37.2615 49.9778 36.7165 49.9778 36.0443C49.9778 35.3721 50.5225 34.8271 51.1944 34.8271C51.8664 34.8271 52.4111 35.3721 52.4111 36.0443C52.4111 36.7165 51.8664 37.2615 51.1944 37.2615Z" fill="#2D2442"/>
<path d="M47.3458 37.2615C46.6739 37.2615 46.1291 36.7165 46.1291 36.0443C46.1291 35.3721 46.6739 34.8271 47.3458 34.8271C48.0178 34.8271 48.5625 35.3721 48.5625 36.0443C48.5625 36.7165 48.0178 37.2615 47.3458 37.2615Z" fill="#2D2442"/>
<path d="M273.645 83.9263C272.973 83.9263 272.428 83.3813 272.428 82.7091C272.428 82.0369 272.973 81.4919 273.645 81.4919C274.317 81.4919 274.862 82.0369 274.862 82.7091C274.862 83.3813 274.317 83.9263 273.645 83.9263Z" fill="#2D2442"/>
<path d="M269.796 83.9263C269.124 83.9263 268.579 83.3813 268.579 82.7091C268.579 82.0369 269.124 81.4919 269.796 81.4919C270.468 81.4919 271.013 82.0369 271.013 82.7091C271.013 83.3813 270.468 83.9263 269.796 83.9263Z" fill="#2D2442"/>
<path d="M265.943 83.9263C265.271 83.9263 264.726 83.3813 264.726 82.7091C264.726 82.0369 265.271 81.4919 265.943 81.4919C266.615 81.4919 267.16 82.0369 267.16 82.7091C267.16 83.3813 266.615 83.9263 265.943 83.9263Z" fill="#2D2442"/>
</g>
<defs>
<clipPath id="clip0_445_9189">
<rect width="306" height="210" fill="white" transform="matrix(-1 0 0 1 306 0)"/>
</clipPath>
</defs>
</svg>
