<svg width="30" height="30" viewBox="0 0 30 30" fill="none" xmlns="http://www.w3.org/2000/svg">
<path d="M14.9999 2.5C12.5755 2.50461 10.2048 3.21414 8.17648 4.54217C6.14816 5.87021 4.54981 7.75943 3.57612 9.97971C2.60242 12.2 2.29541 14.6555 2.69247 17.0472C3.08953 19.4389 4.17354 21.6635 5.81244 23.45C6.98297 24.7188 8.40362 25.7314 9.98486 26.424C11.5661 27.1166 13.2737 27.4742 14.9999 27.4742C16.7262 27.4742 18.4338 27.1166 20.015 26.424C21.5963 25.7314 23.0169 24.7188 24.1874 23.45C25.8263 21.6635 26.9103 19.4389 27.3074 17.0472C27.7045 14.6555 27.3975 12.2 26.4238 9.97971C25.4501 7.75943 23.8517 5.87021 21.8234 4.54217C19.7951 3.21414 17.4243 2.50461 14.9999 2.5ZM14.9999 25C12.4105 24.9961 9.92358 23.9878 8.06244 22.1875C8.62749 20.8119 9.58873 19.6354 10.824 18.8074C12.0593 17.9793 13.5128 17.5373 14.9999 17.5373C16.4871 17.5373 17.9406 17.9793 19.1759 18.8074C20.4111 19.6354 21.3724 20.8119 21.9374 22.1875C20.0763 23.9878 17.5894 24.9961 14.9999 25ZM12.4999 12.5C12.4999 12.0055 12.6466 11.5222 12.9213 11.1111C13.196 10.7 13.5864 10.3795 14.0432 10.1903C14.5 10.0011 15.0027 9.95157 15.4877 10.048C15.9726 10.1445 16.4181 10.3826 16.7677 10.7322C17.1173 11.0819 17.3554 11.5273 17.4519 12.0123C17.5484 12.4972 17.4989 12.9999 17.3096 13.4567C17.1204 13.9135 16.8 14.304 16.3889 14.5787C15.9777 14.8534 15.4944 15 14.9999 15C14.3369 15 13.701 14.7366 13.2322 14.2678C12.7633 13.7989 12.4999 13.163 12.4999 12.5ZM23.6374 20C22.5206 18.0897 20.8017 16.6038 18.7499 15.775C19.3864 15.0533 19.8011 14.1633 19.9443 13.2118C20.0875 12.2603 19.953 11.2876 19.5571 10.4106C19.1612 9.5336 18.5207 8.78945 17.7123 8.26746C16.904 7.74547 15.9622 7.46781 14.9999 7.46781C14.0377 7.46781 13.0959 7.74547 12.2876 8.26746C11.4792 8.78945 10.8387 9.5336 10.4428 10.4106C10.0468 11.2876 9.91242 12.2603 10.0556 13.2118C10.1988 14.1633 10.6135 15.0533 11.2499 15.775C9.19819 16.6038 7.47928 18.0897 6.36244 20C5.47237 18.4839 5.00209 16.7581 4.99994 15C4.99994 12.3478 6.05351 9.8043 7.92887 7.92893C9.80424 6.05357 12.3478 5 14.9999 5C17.6521 5 20.1956 6.05357 22.071 7.92893C23.9464 9.8043 24.9999 12.3478 24.9999 15C24.9978 16.7581 24.5275 18.4839 23.6374 20Z" fill="#D97356"/>
</svg>
